<svg width="148" height="148" viewBox="0 0 148 148" fill="none" xmlns="http://www.w3.org/2000/svg">
<path fill-rule="evenodd" clip-rule="evenodd" d="M107.917 74C107.917 92.7317 92.7317 107.917 74 107.917C55.2683 107.917 40.0833 92.7317 40.0833 74C40.0833 55.2683 55.2683 40.0833 74 40.0833C92.7317 40.0833 107.917 55.2683 107.917 74Z" stroke="#231815" stroke-width="2"/>
<line x1="134.667" y1="71.9167" x2="118.167" y2="71.9167" stroke="#F25022" stroke-width="2" stroke-linecap="round" stroke-linejoin="round"/>
<line x1="29.8333" y1="71.9167" x2="13.3333" y2="71.9167" stroke="#F25022" stroke-width="2" stroke-linecap="round" stroke-linejoin="round"/>
<line x1="134.667" y1="71.9167" x2="118.167" y2="71.9167" stroke="#231815" stroke-width="2" stroke-linecap="round" stroke-linejoin="round"/>
<line x1="29.8333" y1="71.9167" x2="13.3333" y2="71.9167" stroke="#231815" stroke-width="2" stroke-linecap="round" stroke-linejoin="round"/>
<g clip-path="url(#clip0_8_346)">
<line x1="127.581" y1="102.529" x2="113.291" y2="94.2791" stroke="#231815" stroke-width="2" stroke-linecap="round" stroke-linejoin="round"/>
</g>
<g clip-path="url(#clip1_8_346)">
<line x1="36.7922" y1="50.1124" x2="22.5028" y2="41.8624" stroke="#231815" stroke-width="2" stroke-linecap="round" stroke-linejoin="round"/>
</g>
<g clip-path="url(#clip2_8_346)">
<line x1="106.138" y1="125.497" x2="97.8876" y2="111.208" stroke="#231815" stroke-width="2" stroke-linecap="round" stroke-linejoin="round"/>
</g>
<g clip-path="url(#clip3_8_346)">
<line x1="53.7209" y1="34.7089" x2="45.4709" y2="20.4194" stroke="#231815" stroke-width="2" stroke-linecap="round" stroke-linejoin="round"/>
</g>
<g clip-path="url(#clip4_8_346)">
<line x1="76.0833" y1="134.667" x2="76.0833" y2="118.167" stroke="#231815" stroke-width="2" stroke-linecap="round" stroke-linejoin="round"/>
</g>
<g clip-path="url(#clip5_8_346)">
<line x1="76.0833" y1="29.8333" x2="76.0833" y2="13.3333" stroke="#231815" stroke-width="2" stroke-linecap="round" stroke-linejoin="round"/>
</g>
<g clip-path="url(#clip6_8_346)">
<line x1="45.4709" y1="127.581" x2="53.7209" y2="113.291" stroke="#231815" stroke-width="2" stroke-linecap="round" stroke-linejoin="round"/>
</g>
<g clip-path="url(#clip7_8_346)">
<line x1="97.8876" y1="36.7922" x2="106.138" y2="22.5028" stroke="#231815" stroke-width="2" stroke-linecap="round" stroke-linejoin="round"/>
</g>
<g clip-path="url(#clip8_8_346)">
<line x1="22.5028" y1="106.138" x2="36.7922" y2="97.8876" stroke="#231815" stroke-width="2" stroke-linecap="round" stroke-linejoin="round"/>
</g>
<g clip-path="url(#clip9_8_346)">
<line x1="113.291" y1="53.7209" x2="127.581" y2="45.4709" stroke="#231815" stroke-width="2" stroke-linecap="round" stroke-linejoin="round"/>
</g>
<path d="M104.833 74C104.833 91.0288 91.0288 104.833 74 104.833C56.9712 104.833 43.1667 91.0288 43.1667 74C43.1667 56.9712 56.9712 43.1667 74 43.1667C91.0288 43.1667 104.833 56.9712 104.833 74Z" fill="#FFB900"/>
<defs>
<clipPath id="clip0_8_346">
<rect x="111.797" y="88.7012" width="24.6667" height="12.3333" rx="6" transform="rotate(30 111.797 88.7012)" fill="white"/>
</clipPath>
<clipPath id="clip1_8_346">
<rect x="21.0082" y="36.2845" width="24.6667" height="12.3333" rx="6" transform="rotate(30 21.0082 36.2845)" fill="white"/>
</clipPath>
<clipPath id="clip2_8_346">
<rect x="99.3822" y="105.63" width="24.6667" height="12.3333" rx="6" transform="rotate(60 99.3822 105.63)" fill="white"/>
</clipPath>
<clipPath id="clip3_8_346">
<rect x="46.9655" y="14.8415" width="24.6667" height="12.3333" rx="6" transform="rotate(60 46.9655 14.8415)" fill="white"/>
</clipPath>
<clipPath id="clip4_8_346">
<rect x="80.1667" y="114.083" width="24.6667" height="12.3333" rx="6" transform="rotate(90 80.1667 114.083)" fill="white"/>
</clipPath>
<clipPath id="clip5_8_346">
<rect x="80.1667" y="9.25" width="24.6667" height="12.3333" rx="6" transform="rotate(90 80.1667 9.25)" fill="white"/>
</clipPath>
<clipPath id="clip6_8_346">
<rect x="59.2988" y="111.797" width="24.6667" height="12.3333" rx="6" transform="rotate(120 59.2988 111.797)" fill="white"/>
</clipPath>
<clipPath id="clip7_8_346">
<rect x="111.716" y="21.0082" width="24.6667" height="12.3333" rx="6" transform="rotate(120 111.716 21.0082)" fill="white"/>
</clipPath>
<clipPath id="clip8_8_346">
<rect x="42.3701" y="99.3822" width="24.6667" height="12.3333" rx="6" transform="rotate(150 42.3701 99.3822)" fill="white"/>
</clipPath>
<clipPath id="clip9_8_346">
<rect x="133.158" y="46.9655" width="24.6667" height="12.3333" rx="6" transform="rotate(150 133.158 46.9655)" fill="white"/>
</clipPath>
</defs>
</svg>
